<svg xmlns="http://www.w3.org/2000/svg" width="134.031" height="25.044" viewBox="0 0 134.031 25.044">
  <g id="Group_245" data-name="Group 245" transform="translate(0 0.004)">
    <g id="Group_254" data-name="Group 254" transform="translate(98.783 -0.004)">
      <path id="Path_315" data-name="Path 315" d="M447.215.123a9.587,9.587,0,0,1,3.875.2,12.378,12.378,0,0,1,9.361,9.285A1.482,1.482,0,0,1,458.69,11.5a1.62,1.62,0,0,1-1.082-1.283,9.363,9.363,0,0,0-6.492-6.845,9.231,9.231,0,0,0-8.1,1.485,9.558,9.558,0,0,0-3.8,7.675,1.433,1.433,0,0,1-1.661,1.409,1.592,1.592,0,0,1-1.208-1.988A12.334,12.334,0,0,1,447.215.123Z" transform="translate(-425.288 0.004)" fill="#BDD639"/>
      <path id="Path_316" data-name="Path 316" d="M402.537.885a1.455,1.455,0,0,1,1.938,1.384,1.461,1.461,0,0,1-1.434,1.485,9.408,9.408,0,0,0-7.524,8.329q-.038,1.132,0,2.265a1.429,1.429,0,0,1-1.409,1.434,1.408,1.408,0,0,1-1.434-1.107,12.533,12.533,0,0,1,4.479-11.3A12.588,12.588,0,0,1,402.537.885Z" transform="translate(-392.563 -0.607)" fill="#BDD639"/>
      <path id="Path_317" data-name="Path 317" d="M464.473,21.588a8.878,8.878,0,0,1,1.636,0,7,7,0,0,1,6.165,6.719,6.771,6.771,0,0,1-.931,3.875,1.446,1.446,0,0,1-2.567-.478c-.2-.78.4-1.409.528-2.139a4.147,4.147,0,0,0-1.887-4.479,4.063,4.063,0,0,0-5.737,1.736c-.2.654-.679,1.384-1.434,1.359a1.449,1.449,0,0,1-1.485-1.787A7,7,0,0,1,464.473,21.588Z" transform="translate(-442.068 -16.126)" fill="#BDD639"/>
      <path id="Path_318" data-name="Path 318" d="M415.553,30.978a1.476,1.476,0,0,1,1.912,1.258,1.87,1.87,0,0,1-.453,1.283,4.217,4.217,0,0,0,.226,4.529,4.017,4.017,0,0,0,6.769-.327,1.42,1.42,0,0,1,1.736-.679,1.472,1.472,0,0,1,.881,1.837,6.873,6.873,0,0,1-8.254,3.447,7.155,7.155,0,0,1-4.731-5.385,7.647,7.647,0,0,1,.528-4.3C414.521,32.01,414.823,31.255,415.553,30.978Z" transform="translate(-408.271 -23.126)" fill="#BDD639"/>
      <path id="Path_319" data-name="Path 319" d="M422.585,43.756a1.469,1.469,0,0,1,1.812.981,12.341,12.341,0,0,1-9.059,12.456,8.637,8.637,0,0,1-4.982.252,12.2,12.2,0,0,1-7.6-4.429,1.481,1.481,0,0,1,.83-2.29,1.578,1.578,0,0,1,1.636.73,9.248,9.248,0,0,0,13.664.352,9.771,9.771,0,0,0,2.693-6.618A1.456,1.456,0,0,1,422.585,43.756Z" transform="translate(-399.979 -32.683)" fill="#BDD639"/>
      <path id="Path_320" data-name="Path 320" d="M495.575,58.459a1.447,1.447,0,0,1,1.912.83c.277.7-.151,1.384-.4,2.038a12.3,12.3,0,0,1-8.832,7.021,1.519,1.519,0,0,1-1.812-.73,1.48,1.48,0,0,1,.981-2.089,9.358,9.358,0,0,0,7.222-5.913A1.876,1.876,0,0,1,495.575,58.459Z" transform="translate(-462.702 -43.662)" fill="#BDD639"/>
    </g>
    <g id="Group_256" data-name="Group 256" transform="translate(0 1.588)">
      <path id="Path_321" data-name="Path 321" d="M123.046,6.392a1.541,1.541,0,0,1,1.61.4,1.613,1.613,0,0,1-.428,2.567A1.566,1.566,0,0,1,121.989,8,1.645,1.645,0,0,1,123.046,6.392Z" transform="translate(-91.29 -6.322)" fill="#231f20"/>
      <path id="Path_322" data-name="Path 322" d="M36.934,20.214a1.584,1.584,0,1,1-.151,3.1A1.741,1.741,0,0,1,35.6,21.824,1.689,1.689,0,0,1,36.934,20.214Z" transform="translate(-26.642 -16.696)" fill="#231f20"/>
      <path id="Path_323" data-name="Path 323" d="M53.813,20.185a1.586,1.586,0,1,1,.377,3.145,1.593,1.593,0,0,1-.377-3.145Z" transform="translate(-39.344 -16.668)" fill="#231f20"/>
      <path id="Path_324" data-name="Path 324" d="M182.03,20.207a1.595,1.595,0,0,1,.73,3.1,1.59,1.59,0,1,1-.73-3.1Z" transform="translate(-135.276 -16.69)" fill="#231f20"/>
      <path id="Path_325" data-name="Path 325" d="M2.843,24.475c.1-.025.277,0,.226.151q.038,4.341,0,8.681c-.05.528.6.6.956.805a5.493,5.493,0,0,0,2.391.277H19.3a1.981,1.981,0,0,0,.931-.252A3.6,3.6,0,0,0,22.144,32.2a5.562,5.562,0,0,0,.252-2.491c0-1.711-.025-3.422.025-5.133q1.434-.038,2.869,0c.05,2.189,0,4.4.025,6.593a12.625,12.625,0,0,0,.025,2.391,3.908,3.908,0,0,0,2.542.83,3.081,3.081,0,0,0,2.919-3.12V25.481a5.642,5.642,0,0,1,3.02-.956c0,2.391.025,4.806,0,7.2a6.046,6.046,0,0,1-2.441,4.4,6.843,6.843,0,0,1-7.247.151c-.352-.126-.755-.629-1.107-.252a5.99,5.99,0,0,1-2.768,1.158c-5.133.025-10.292.025-15.425,0A9.59,9.59,0,0,1,0,35.119c0-3.221.025-6.442,0-9.638A6.771,6.771,0,0,1,2.843,24.475Z" transform="translate(0 -19.9)" fill="#231f20"/>
      <g id="Group_255" data-name="Group 255" transform="translate(38.299 4.475)">
        <path id="Path_326" data-name="Path 326" d="M194.676,24.631a13.726,13.726,0,0,1,6.392-.277,6.352,6.352,0,1,1-3.12,12.28,11.826,11.826,0,0,1-2.567-1.007,6.418,6.418,0,0,1-3.825,1.283,9.807,9.807,0,0,1-4.731-1.283c-2.441,1.963-5.939,1.459-8.48,0a6.384,6.384,0,0,1-3.271,1.258c-2.24.025-4.6.252-6.668-.83a5.9,5.9,0,0,1-4.529,2.214c-2.139,0-4.278.025-6.442-.025a5.8,5.8,0,0,1-5.184-5.435c-.1-2.542,0-5.083-.05-7.6a5.642,5.642,0,0,1,3.02-.956c.05,2.416.025,4.806.025,7.222a5.968,5.968,0,0,0,.151,1.761,3.3,3.3,0,0,0,3.1,2.265c1.812-.025,3.624,0,5.435,0a3.294,3.294,0,0,0,2.768-3.221V24.606c.025-.126-.05-.4.176-.377.881-.025,1.736,0,2.617,0,.2-.025.3.2.277.377v9.109c1.283.679,2.743.377,4.127.453a3.5,3.5,0,0,0,3.422-1.963,5.334,5.334,0,0,0,.377-2.743c0-1.711-.025-3.422.025-5.133.956-.025,1.887-.025,2.843,0,.025,3.12-.05,6.241.05,9.361l.151.075a4.281,4.281,0,0,0,3.473.025,3.147,3.147,0,0,0,1.862-2.869V24.3a24.061,24.061,0,0,1,3.02-.1c-.025,3.171-.025,6.316,0,9.487a.836.836,0,0,0,.151.075c1.988,1.032,4.882.075,5.36-2.24C194.727,29.211,194.4,26.871,194.676,24.631Zm2.944,2.642c-.05,2.214-.025,4.454-.025,6.694a4.375,4.375,0,0,0,4.555-.83,3.491,3.491,0,0,0-.277-4.982A5.426,5.426,0,0,0,197.62,27.274Z" transform="translate(-152.2 -24.104)" fill="#231f20"/>
      </g>
      <path id="Path_327" data-name="Path 327" d="M223.883,84.406a1.536,1.536,0,0,1,1.761.956,1.591,1.591,0,0,1-.856,2.089,1.559,1.559,0,0,1-2.063-.981A1.589,1.589,0,0,1,223.883,84.406Z" transform="translate(-166.611 -64.734)" fill="#231f20"/>
      <path id="Path_328" data-name="Path 328" d="M240.662,84.426a1.6,1.6,0,1,1-1.258,1.963A1.554,1.554,0,0,1,240.662,84.426Z" transform="translate(-179.112 -64.753)" fill="#231f20"/>
      <path id="Path_329" data-name="Path 329" d="M270.792,84.407a1.578,1.578,0,0,1,1.837,1.535,1.614,1.614,0,0,1-1.787,1.636,1.636,1.636,0,0,1-1.334-1.283A1.611,1.611,0,0,1,270.792,84.407Z" transform="translate(-201.668 -64.735)" fill="#231f20"/>
    </g>
  </g>
</svg>
