<svg xmlns="http://www.w3.org/2000/svg" width="267.993" height="256.993" viewBox="0 0 267.993 256.993">
  <g id="Group_1350" data-name="Group 1350" transform="translate(0.032 0.49)" opacity="0.05">
    <path id="Path_408" data-name="Path 408" d="M144.742,109.344A39.7,39.7,0,0,0,72.454,79.068a40.046,40.046,0,0,0,6.519,50.123" transform="translate(29.071 26.356)" fill="none" stroke="#00ad4c" stroke-linecap="round" stroke-linejoin="round" stroke-miterlimit="2.613" stroke-width="3.316" stroke-dasharray="16.582 9.949 3.316 9.949"/>
    <g id="Group_396" data-name="Group 396" transform="translate(1.669 1.7)">
      <path id="Path_409" data-name="Path 409" d="M204.562,92.358A87.874,87.874,0,0,0,194.277,68.02a85.969,85.969,0,1,0-55.628,129.509" transform="translate(13.36 9.772)" fill="none" stroke="#00ad4c" stroke-linecap="round" stroke-linejoin="round" stroke-miterlimit="2.613" stroke-width="3.317" stroke-dasharray="16.583 9.95 3.317 9.95"/>
      <path id="Path_410" data-name="Path 410" d="M80.086,1.7A132.163,132.163,0,0,0,2.293,135.265C9.392,207.987,74,261.3,146.724,254.2s126.032-71.708,118.934-144.43a132.283,132.283,0,0,0-46.791-88.8" transform="translate(-1.669 -1.7)" fill="none" stroke="#00ad4c" stroke-linecap="round" stroke-linejoin="round" stroke-miterlimit="2.613" stroke-width="3.317" stroke-dasharray="16.584 9.95 3.317 9.95"/>
    </g>
    <path id="Path_411" data-name="Path 411" d="M161.1,148.447a62.828,62.828,0,1,0-47.371,21.44,59.913,59.913,0,0,0,10.141-.869" transform="translate(22.132 18.978)" fill="none" stroke="#00ad4c" stroke-linecap="round" stroke-linejoin="round" stroke-miterlimit="2.613" stroke-width="3.316" stroke-dasharray="16.581 9.949 3.316 9.949"/>
    <g id="Group_397" data-name="Group 397" transform="translate(26.341 124.545)">
      <path id="Path_412" data-name="Path 412" d="M18.7,86.5a109.29,109.29,0,0,0,60.7,96.77A115.834,115.834,0,0,0,90.988,188.2" transform="translate(-18.7 -86.5)" fill="none" stroke="#00ad4c" stroke-linecap="round" stroke-linejoin="round" stroke-miterlimit="2.613" stroke-width="3.317" stroke-dasharray="16.586 9.952 3.317 9.952"/>
    </g>
    <path id="Path_413" data-name="Path 413" d="M104.454,76.879a5.145,5.145,0,0,1,1.3.579A18.063,18.063,0,0,1,110.1,80.5M82,91.221a18.821,18.821,0,0,1,1.594-6.229A16.19,16.19,0,0,1,94.314,76.3m.145,32.015a20.674,20.674,0,0,1-3.187-1.159,16.257,16.257,0,0,1-7.388-7.243m31-9.416a17.429,17.429,0,0,1-1.594,8.982,8.645,8.645,0,0,1-1.3,2.173" transform="translate(36.04 33.469)" fill="none" stroke="#00ad4c" stroke-linecap="round" stroke-linejoin="round" stroke-miterlimit="2.613" stroke-width="3.316"/>
  </g>
</svg>
